<?xml version="1.0" encoding="UTF-8" standalone="no"?>
<!DOCTYPE svg PUBLIC "-//W3C//DTD SVG 1.1//EN"
 "http://www.w3.org/Graphics/SVG/1.1/DTD/svg11.dtd">
<!-- Generated by graphviz version 2.38.0 (20140413.2041)
 -->
<!-- Title: controllers_diagram Pages: 1 -->
<svg width="676pt" height="716pt"
 viewBox="0.00 0.00 675.50 716.00" xmlns="http://www.w3.org/2000/svg" xmlns:xlink="http://www.w3.org/1999/xlink">
<g id="graph0" class="graph" transform="scale(1 1) rotate(0) translate(288.5 427)">
<title>controllers_diagram</title>
<polygon fill="none" stroke="none" points="-288.5,289 -288.5,-427 387,-427 387,289 -288.5,289"/>
<!-- _diagram_info -->
<g id="node1" class="node"><title>_diagram_info</title>
<text text-anchor="start" x="8" y="164.4" font-family="Times,serif" font-size="13.00">Controllers diagram</text>
<text text-anchor="start" x="8" y="178.4" font-family="Times,serif" font-size="13.00">Date: Sep 04 2016 &#45; 19:33</text>
<text text-anchor="start" x="8" y="192.4" font-family="Times,serif" font-size="13.00">Migration version: 20160903160501</text>
<text text-anchor="start" x="8" y="206.4" font-family="Times,serif" font-size="13.00">Generated by RailRoady 1.5.1</text>
<text text-anchor="start" x="8" y="220.4" font-family="Times,serif" font-size="13.00">http://railroady.prestonlee.com</text>
</g>
<!-- ApplicationController -->
<g id="node2" class="node"><title>ApplicationController</title>
<path fill="none" stroke="black" d="M259,246C259,246 371,246 371,246 377,246 383,240 383,234 383,234 383,164 383,164 383,158 377,152 371,152 371,152 259,152 259,152 253,152 247,158 247,164 247,164 247,234 247,234 247,240 253,246 259,246"/>
<text text-anchor="middle" x="315" y="167.2" font-family="Times,serif" font-size="14.00">ApplicationController</text>
<polyline fill="none" stroke="black" points="247,175 383,175 "/>
<polyline fill="none" stroke="black" points="247,199 383,199 "/>
<polyline fill="none" stroke="black" points="247,223 383,223 "/>
<text text-anchor="start" x="255" y="238.2" font-family="Times,serif" font-size="14.00">_layout</text>
</g>
<!-- ProductCategoriesController -->
<g id="node3" class="node"><title>ProductCategoriesController</title>
<path fill="none" stroke="black" d="M-83,113.5C-83,113.5 65,113.5 65,113.5 71,113.5 77,107.5 77,101.5 77,101.5 77,-87.5 77,-87.5 77,-93.5 71,-99.5 65,-99.5 65,-99.5 -83,-99.5 -83,-99.5 -89,-99.5 -95,-93.5 -95,-87.5 -95,-87.5 -95,101.5 -95,101.5 -95,107.5 -89,113.5 -83,113.5"/>
<text text-anchor="middle" x="-9" y="-84.3" font-family="Times,serif" font-size="14.00">ProductCategoriesController</text>
<polyline fill="none" stroke="black" points="-95,-76.5 77,-76.5 "/>
<text text-anchor="start" x="-87" y="-61.3" font-family="Times,serif" font-size="14.00">create</text>
<text text-anchor="start" x="-87" y="-46.3" font-family="Times,serif" font-size="14.00">destroy</text>
<text text-anchor="start" x="-87" y="-31.3" font-family="Times,serif" font-size="14.00">edit</text>
<text text-anchor="start" x="-87" y="-16.3" font-family="Times,serif" font-size="14.00">index</text>
<text text-anchor="start" x="-87" y="-1.3" font-family="Times,serif" font-size="14.00">new</text>
<text text-anchor="start" x="-87" y="13.7" font-family="Times,serif" font-size="14.00">show</text>
<text text-anchor="start" x="-87" y="28.7" font-family="Times,serif" font-size="14.00">update</text>
<polyline fill="none" stroke="black" points="-95,36.5 77,36.5 "/>
<polyline fill="none" stroke="black" points="-95,60.5 77,60.5 "/>
<text text-anchor="start" x="-87" y="75.7" font-family="Times,serif" font-size="14.00">_layout</text>
<text text-anchor="start" x="-87" y="90.7" font-family="Times,serif" font-size="14.00">product_category_params</text>
<text text-anchor="start" x="-87" y="105.7" font-family="Times,serif" font-size="14.00">set_product_category</text>
</g>
<!-- ProductsController -->
<g id="node4" class="node"><title>ProductsController</title>
<path fill="none" stroke="black" d="M145.5,-133.5C145.5,-133.5 240.5,-133.5 240.5,-133.5 246.5,-133.5 252.5,-139.5 252.5,-145.5 252.5,-145.5 252.5,-334.5 252.5,-334.5 252.5,-340.5 246.5,-346.5 240.5,-346.5 240.5,-346.5 145.5,-346.5 145.5,-346.5 139.5,-346.5 133.5,-340.5 133.5,-334.5 133.5,-334.5 133.5,-145.5 133.5,-145.5 133.5,-139.5 139.5,-133.5 145.5,-133.5"/>
<text text-anchor="middle" x="193" y="-331.3" font-family="Times,serif" font-size="14.00">ProductsController</text>
<polyline fill="none" stroke="black" points="133.5,-323.5 252.5,-323.5 "/>
<text text-anchor="start" x="141.5" y="-308.3" font-family="Times,serif" font-size="14.00">create</text>
<text text-anchor="start" x="141.5" y="-293.3" font-family="Times,serif" font-size="14.00">destroy</text>
<text text-anchor="start" x="141.5" y="-278.3" font-family="Times,serif" font-size="14.00">edit</text>
<text text-anchor="start" x="141.5" y="-263.3" font-family="Times,serif" font-size="14.00">index</text>
<text text-anchor="start" x="141.5" y="-248.3" font-family="Times,serif" font-size="14.00">new</text>
<text text-anchor="start" x="141.5" y="-233.3" font-family="Times,serif" font-size="14.00">show</text>
<text text-anchor="start" x="141.5" y="-218.3" font-family="Times,serif" font-size="14.00">update</text>
<polyline fill="none" stroke="black" points="133.5,-210.5 252.5,-210.5 "/>
<polyline fill="none" stroke="black" points="133.5,-186.5 252.5,-186.5 "/>
<text text-anchor="start" x="141.5" y="-171.3" font-family="Times,serif" font-size="14.00">_layout</text>
<text text-anchor="start" x="141.5" y="-156.3" font-family="Times,serif" font-size="14.00">product_params</text>
<text text-anchor="start" x="141.5" y="-141.3" font-family="Times,serif" font-size="14.00">set_product</text>
</g>
<!-- CustomersController -->
<g id="node5" class="node"><title>CustomersController</title>
<path fill="none" stroke="black" d="M-25.5,-133.5C-25.5,-133.5 81.5,-133.5 81.5,-133.5 87.5,-133.5 93.5,-139.5 93.5,-145.5 93.5,-145.5 93.5,-334.5 93.5,-334.5 93.5,-340.5 87.5,-346.5 81.5,-346.5 81.5,-346.5 -25.5,-346.5 -25.5,-346.5 -31.5,-346.5 -37.5,-340.5 -37.5,-334.5 -37.5,-334.5 -37.5,-145.5 -37.5,-145.5 -37.5,-139.5 -31.5,-133.5 -25.5,-133.5"/>
<text text-anchor="middle" x="28" y="-331.3" font-family="Times,serif" font-size="14.00">CustomersController</text>
<polyline fill="none" stroke="black" points="-37.5,-323.5 93.5,-323.5 "/>
<text text-anchor="start" x="-29.5" y="-308.3" font-family="Times,serif" font-size="14.00">create</text>
<text text-anchor="start" x="-29.5" y="-293.3" font-family="Times,serif" font-size="14.00">destroy</text>
<text text-anchor="start" x="-29.5" y="-278.3" font-family="Times,serif" font-size="14.00">edit</text>
<text text-anchor="start" x="-29.5" y="-263.3" font-family="Times,serif" font-size="14.00">index</text>
<text text-anchor="start" x="-29.5" y="-248.3" font-family="Times,serif" font-size="14.00">new</text>
<text text-anchor="start" x="-29.5" y="-233.3" font-family="Times,serif" font-size="14.00">show</text>
<text text-anchor="start" x="-29.5" y="-218.3" font-family="Times,serif" font-size="14.00">update</text>
<polyline fill="none" stroke="black" points="-37.5,-210.5 93.5,-210.5 "/>
<polyline fill="none" stroke="black" points="-37.5,-186.5 93.5,-186.5 "/>
<text text-anchor="start" x="-29.5" y="-171.3" font-family="Times,serif" font-size="14.00">_layout</text>
<text text-anchor="start" x="-29.5" y="-156.3" font-family="Times,serif" font-size="14.00">customer_params</text>
<text text-anchor="start" x="-29.5" y="-141.3" font-family="Times,serif" font-size="14.00">set_customer</text>
</g>
<!-- OrdersController -->
<g id="node6" class="node"><title>OrdersController</title>
<path fill="none" stroke="black" d="M-272.5,284.5C-272.5,284.5 -187.5,284.5 -187.5,284.5 -181.5,284.5 -175.5,278.5 -175.5,272.5 -175.5,272.5 -175.5,83.5 -175.5,83.5 -175.5,77.5 -181.5,71.5 -187.5,71.5 -187.5,71.5 -272.5,71.5 -272.5,71.5 -278.5,71.5 -284.5,77.5 -284.5,83.5 -284.5,83.5 -284.5,272.5 -284.5,272.5 -284.5,278.5 -278.5,284.5 -272.5,284.5"/>
<text text-anchor="middle" x="-230" y="86.7" font-family="Times,serif" font-size="14.00">OrdersController</text>
<polyline fill="none" stroke="black" points="-284.5,94.5 -175.5,94.5 "/>
<text text-anchor="start" x="-276.5" y="109.7" font-family="Times,serif" font-size="14.00">create</text>
<text text-anchor="start" x="-276.5" y="124.7" font-family="Times,serif" font-size="14.00">destroy</text>
<text text-anchor="start" x="-276.5" y="139.7" font-family="Times,serif" font-size="14.00">edit</text>
<text text-anchor="start" x="-276.5" y="154.7" font-family="Times,serif" font-size="14.00">index</text>
<text text-anchor="start" x="-276.5" y="169.7" font-family="Times,serif" font-size="14.00">new</text>
<text text-anchor="start" x="-276.5" y="184.7" font-family="Times,serif" font-size="14.00">show</text>
<text text-anchor="start" x="-276.5" y="199.7" font-family="Times,serif" font-size="14.00">update</text>
<polyline fill="none" stroke="black" points="-284.5,207.5 -175.5,207.5 "/>
<polyline fill="none" stroke="black" points="-284.5,231.5 -175.5,231.5 "/>
<text text-anchor="start" x="-276.5" y="246.7" font-family="Times,serif" font-size="14.00">_layout</text>
<text text-anchor="start" x="-276.5" y="261.7" font-family="Times,serif" font-size="14.00">order_params</text>
<text text-anchor="start" x="-276.5" y="276.7" font-family="Times,serif" font-size="14.00">set_order</text>
</g>
<!-- OrderItemsController -->
<g id="node7" class="node"><title>OrderItemsController</title>
<path fill="none" stroke="black" d="M-197,-209.5C-197,-209.5 -87,-209.5 -87,-209.5 -81,-209.5 -75,-215.5 -75,-221.5 -75,-221.5 -75,-410.5 -75,-410.5 -75,-416.5 -81,-422.5 -87,-422.5 -87,-422.5 -197,-422.5 -197,-422.5 -203,-422.5 -209,-416.5 -209,-410.5 -209,-410.5 -209,-221.5 -209,-221.5 -209,-215.5 -203,-209.5 -197,-209.5"/>
<text text-anchor="middle" x="-142" y="-407.3" font-family="Times,serif" font-size="14.00">OrderItemsController</text>
<polyline fill="none" stroke="black" points="-209,-399.5 -75,-399.5 "/>
<text text-anchor="start" x="-201" y="-384.3" font-family="Times,serif" font-size="14.00">create</text>
<text text-anchor="start" x="-201" y="-369.3" font-family="Times,serif" font-size="14.00">destroy</text>
<text text-anchor="start" x="-201" y="-354.3" font-family="Times,serif" font-size="14.00">edit</text>
<text text-anchor="start" x="-201" y="-339.3" font-family="Times,serif" font-size="14.00">index</text>
<text text-anchor="start" x="-201" y="-324.3" font-family="Times,serif" font-size="14.00">new</text>
<text text-anchor="start" x="-201" y="-309.3" font-family="Times,serif" font-size="14.00">show</text>
<text text-anchor="start" x="-201" y="-294.3" font-family="Times,serif" font-size="14.00">update</text>
<polyline fill="none" stroke="black" points="-209,-286.5 -75,-286.5 "/>
<polyline fill="none" stroke="black" points="-209,-262.5 -75,-262.5 "/>
<text text-anchor="start" x="-201" y="-247.3" font-family="Times,serif" font-size="14.00">_layout</text>
<text text-anchor="start" x="-201" y="-232.3" font-family="Times,serif" font-size="14.00">order_item_params</text>
<text text-anchor="start" x="-201" y="-217.3" font-family="Times,serif" font-size="14.00">set_order_item</text>
</g>
<!-- BranchesController -->
<g id="node8" class="node"><title>BranchesController</title>
<path fill="none" stroke="black" d="M-235,37.5C-235,37.5 -137,37.5 -137,37.5 -131,37.5 -125,31.5 -125,25.5 -125,25.5 -125,-163.5 -125,-163.5 -125,-169.5 -131,-175.5 -137,-175.5 -137,-175.5 -235,-175.5 -235,-175.5 -241,-175.5 -247,-169.5 -247,-163.5 -247,-163.5 -247,25.5 -247,25.5 -247,31.5 -241,37.5 -235,37.5"/>
<text text-anchor="middle" x="-186" y="-160.3" font-family="Times,serif" font-size="14.00">BranchesController</text>
<polyline fill="none" stroke="black" points="-247,-152.5 -125,-152.5 "/>
<text text-anchor="start" x="-239" y="-137.3" font-family="Times,serif" font-size="14.00">create</text>
<text text-anchor="start" x="-239" y="-122.3" font-family="Times,serif" font-size="14.00">destroy</text>
<text text-anchor="start" x="-239" y="-107.3" font-family="Times,serif" font-size="14.00">edit</text>
<text text-anchor="start" x="-239" y="-92.3" font-family="Times,serif" font-size="14.00">index</text>
<text text-anchor="start" x="-239" y="-77.3" font-family="Times,serif" font-size="14.00">new</text>
<text text-anchor="start" x="-239" y="-62.3" font-family="Times,serif" font-size="14.00">show</text>
<text text-anchor="start" x="-239" y="-47.3" font-family="Times,serif" font-size="14.00">update</text>
<polyline fill="none" stroke="black" points="-247,-39.5 -125,-39.5 "/>
<polyline fill="none" stroke="black" points="-247,-15.5 -125,-15.5 "/>
<text text-anchor="start" x="-239" y="-0.3" font-family="Times,serif" font-size="14.00">_layout</text>
<text text-anchor="start" x="-239" y="14.7" font-family="Times,serif" font-size="14.00">branch_params</text>
<text text-anchor="start" x="-239" y="29.7" font-family="Times,serif" font-size="14.00">set_branch</text>
</g>
<!-- FinancialEventsController -->
<g id="node9" class="node"><title>FinancialEventsController</title>
<path fill="none" stroke="black" d="M126.5,113.5C126.5,113.5 261.5,113.5 261.5,113.5 267.5,113.5 273.5,107.5 273.5,101.5 273.5,101.5 273.5,-87.5 273.5,-87.5 273.5,-93.5 267.5,-99.5 261.5,-99.5 261.5,-99.5 126.5,-99.5 126.5,-99.5 120.5,-99.5 114.5,-93.5 114.5,-87.5 114.5,-87.5 114.5,101.5 114.5,101.5 114.5,107.5 120.5,113.5 126.5,113.5"/>
<text text-anchor="middle" x="194" y="-84.3" font-family="Times,serif" font-size="14.00">FinancialEventsController</text>
<polyline fill="none" stroke="black" points="114.5,-76.5 273.5,-76.5 "/>
<text text-anchor="start" x="122.5" y="-61.3" font-family="Times,serif" font-size="14.00">create</text>
<text text-anchor="start" x="122.5" y="-46.3" font-family="Times,serif" font-size="14.00">destroy</text>
<text text-anchor="start" x="122.5" y="-31.3" font-family="Times,serif" font-size="14.00">edit</text>
<text text-anchor="start" x="122.5" y="-16.3" font-family="Times,serif" font-size="14.00">index</text>
<text text-anchor="start" x="122.5" y="-1.3" font-family="Times,serif" font-size="14.00">new</text>
<text text-anchor="start" x="122.5" y="13.7" font-family="Times,serif" font-size="14.00">show</text>
<text text-anchor="start" x="122.5" y="28.7" font-family="Times,serif" font-size="14.00">update</text>
<polyline fill="none" stroke="black" points="114.5,36.5 273.5,36.5 "/>
<polyline fill="none" stroke="black" points="114.5,60.5 273.5,60.5 "/>
<text text-anchor="start" x="122.5" y="75.7" font-family="Times,serif" font-size="14.00">_layout</text>
<text text-anchor="start" x="122.5" y="90.7" font-family="Times,serif" font-size="14.00">financial_event_params</text>
<text text-anchor="start" x="122.5" y="105.7" font-family="Times,serif" font-size="14.00">set_financial_event</text>
</g>
<!-- StaticController -->
<g id="node10" class="node"><title>StaticController</title>
<path fill="none" stroke="black" d="M-120.5,246.5C-120.5,246.5 -41.5,246.5 -41.5,246.5 -35.5,246.5 -29.5,240.5 -29.5,234.5 -29.5,234.5 -29.5,165.5 -29.5,165.5 -29.5,159.5 -35.5,153.5 -41.5,153.5 -41.5,153.5 -120.5,153.5 -120.5,153.5 -126.5,153.5 -132.5,159.5 -132.5,165.5 -132.5,165.5 -132.5,234.5 -132.5,234.5 -132.5,240.5 -126.5,246.5 -120.5,246.5"/>
<text text-anchor="middle" x="-81" y="168.7" font-family="Times,serif" font-size="14.00">StaticController</text>
<polyline fill="none" stroke="black" points="-132.5,176.5 -29.5,176.5 "/>
<text text-anchor="start" x="-124.5" y="191.7" font-family="Times,serif" font-size="14.00">landing</text>
<polyline fill="none" stroke="black" points="-132.5,199.5 -29.5,199.5 "/>
<polyline fill="none" stroke="black" points="-132.5,223.5 -29.5,223.5 "/>
<text text-anchor="start" x="-124.5" y="238.7" font-family="Times,serif" font-size="14.00">_layout</text>
</g>
</g>
</svg>
