<?xml version="1.0" encoding="UTF-8" standalone="no"?>
<!DOCTYPE svg PUBLIC "-//W3C//DTD SVG 1.1//EN"
 "http://www.w3.org/Graphics/SVG/1.1/DTD/svg11.dtd">
<!-- Generated by graphviz version 2.38.0 (20140413.2041)
 -->
<!-- Title: models_diagram Pages: 1 -->
<svg width="1490pt" height="160pt"
 viewBox="0.00 0.00 1489.50 160.00" xmlns="http://www.w3.org/2000/svg" xmlns:xlink="http://www.w3.org/1999/xlink">
<g id="graph0" class="graph" transform="scale(1 1) rotate(0) translate(4 156)">
<title>models_diagram</title>
<polygon fill="none" stroke="none" points="-4,4 -4,-156 1485.5,-156 1485.5,4 -4,4"/>
<!-- _diagram_info -->
<g id="node1" class="node"><title>_diagram_info</title>
<text text-anchor="start" x="8" y="-100.6" font-family="Times,serif" font-size="13.00">Models diagram</text>
<text text-anchor="start" x="8" y="-86.6" font-family="Times,serif" font-size="13.00">Date: Sep 04 2016 &#45; 19:33</text>
<text text-anchor="start" x="8" y="-72.6" font-family="Times,serif" font-size="13.00">Migration version: 20160903160501</text>
<text text-anchor="start" x="8" y="-58.6" font-family="Times,serif" font-size="13.00">Generated by RailRoady 1.5.1</text>
<text text-anchor="start" x="8" y="-44.6" font-family="Times,serif" font-size="13.00">http://railroady.prestonlee.com</text>
</g>
<!-- ApplicationRecord -->
<g id="node2" class="node"><title>ApplicationRecord</title>
<ellipse fill="none" stroke="black" cx="309" cy="-76" rx="77.1866" ry="18"/>
<text text-anchor="middle" x="309" y="-72.3" font-family="Times,serif" font-size="14.00">ApplicationRecord</text>
</g>
<!-- ProductCategory -->
<g id="node3" class="node"><title>ProductCategory</title>
<path fill="none" stroke="black" d="M416.5,-23C416.5,-23 523.5,-23 523.5,-23 529.5,-23 535.5,-29 535.5,-35 535.5,-35 535.5,-117 535.5,-117 535.5,-123 529.5,-129 523.5,-129 523.5,-129 416.5,-129 416.5,-129 410.5,-129 404.5,-123 404.5,-117 404.5,-117 404.5,-35 404.5,-35 404.5,-29 410.5,-23 416.5,-23"/>
<text text-anchor="middle" x="470" y="-113.8" font-family="Times,serif" font-size="14.00">ProductCategory</text>
<polyline fill="none" stroke="black" points="404.5,-106 535.5,-106 "/>
<text text-anchor="start" x="412.5" y="-90.8" font-family="Times,serif" font-size="14.00">id :INTEGER</text>
<text text-anchor="start" x="412.5" y="-75.8" font-family="Times,serif" font-size="14.00">name :varchar</text>
<text text-anchor="start" x="412.5" y="-60.8" font-family="Times,serif" font-size="14.00">description :varchar</text>
<text text-anchor="start" x="412.5" y="-45.8" font-family="Times,serif" font-size="14.00">created_at :datetime</text>
<text text-anchor="start" x="412.5" y="-30.8" font-family="Times,serif" font-size="14.00">updated_at :datetime</text>
</g>
<!-- Product -->
<g id="node4" class="node"><title>Product</title>
<path fill="none" stroke="black" d="M565.5,-0.5C565.5,-0.5 696.5,-0.5 696.5,-0.5 702.5,-0.5 708.5,-6.5 708.5,-12.5 708.5,-12.5 708.5,-139.5 708.5,-139.5 708.5,-145.5 702.5,-151.5 696.5,-151.5 696.5,-151.5 565.5,-151.5 565.5,-151.5 559.5,-151.5 553.5,-145.5 553.5,-139.5 553.5,-139.5 553.5,-12.5 553.5,-12.5 553.5,-6.5 559.5,-0.5 565.5,-0.5"/>
<text text-anchor="middle" x="631" y="-136.3" font-family="Times,serif" font-size="14.00">Product</text>
<polyline fill="none" stroke="black" points="553.5,-128.5 708.5,-128.5 "/>
<text text-anchor="start" x="561.5" y="-113.3" font-family="Times,serif" font-size="14.00">id :INTEGER</text>
<text text-anchor="start" x="561.5" y="-98.3" font-family="Times,serif" font-size="14.00">name :varchar</text>
<text text-anchor="start" x="561.5" y="-83.3" font-family="Times,serif" font-size="14.00">category_id :integer</text>
<text text-anchor="start" x="561.5" y="-68.3" font-family="Times,serif" font-size="14.00">price :decimal</text>
<text text-anchor="start" x="561.5" y="-53.3" font-family="Times,serif" font-size="14.00">description :varchar</text>
<text text-anchor="start" x="561.5" y="-38.3" font-family="Times,serif" font-size="14.00">preparation_time :integer</text>
<text text-anchor="start" x="561.5" y="-23.3" font-family="Times,serif" font-size="14.00">created_at :datetime</text>
<text text-anchor="start" x="561.5" y="-8.3" font-family="Times,serif" font-size="14.00">updated_at :datetime</text>
</g>
<!-- Customer -->
<g id="node5" class="node"><title>Customer</title>
<path fill="none" stroke="black" d="M739,-15.5C739,-15.5 873,-15.5 873,-15.5 879,-15.5 885,-21.5 885,-27.5 885,-27.5 885,-124.5 885,-124.5 885,-130.5 879,-136.5 873,-136.5 873,-136.5 739,-136.5 739,-136.5 733,-136.5 727,-130.5 727,-124.5 727,-124.5 727,-27.5 727,-27.5 727,-21.5 733,-15.5 739,-15.5"/>
<text text-anchor="middle" x="806" y="-121.3" font-family="Times,serif" font-size="14.00">Customer</text>
<polyline fill="none" stroke="black" points="727,-113.5 885,-113.5 "/>
<text text-anchor="start" x="735" y="-98.3" font-family="Times,serif" font-size="14.00">id :INTEGER</text>
<text text-anchor="start" x="735" y="-83.3" font-family="Times,serif" font-size="14.00">name :varchar</text>
<text text-anchor="start" x="735" y="-68.3" font-family="Times,serif" font-size="14.00">billing_address :varchar</text>
<text text-anchor="start" x="735" y="-53.3" font-family="Times,serif" font-size="14.00">shipping_address :varchar</text>
<text text-anchor="start" x="735" y="-38.3" font-family="Times,serif" font-size="14.00">created_at :datetime</text>
<text text-anchor="start" x="735" y="-23.3" font-family="Times,serif" font-size="14.00">updated_at :datetime</text>
</g>
<!-- Order -->
<g id="node6" class="node"><title>Order</title>
<path fill="none" stroke="black" d="M915.5,-8C915.5,-8 1022.5,-8 1022.5,-8 1028.5,-8 1034.5,-14 1034.5,-20 1034.5,-20 1034.5,-132 1034.5,-132 1034.5,-138 1028.5,-144 1022.5,-144 1022.5,-144 915.5,-144 915.5,-144 909.5,-144 903.5,-138 903.5,-132 903.5,-132 903.5,-20 903.5,-20 903.5,-14 909.5,-8 915.5,-8"/>
<text text-anchor="middle" x="969" y="-128.8" font-family="Times,serif" font-size="14.00">Order</text>
<polyline fill="none" stroke="black" points="903.5,-121 1034.5,-121 "/>
<text text-anchor="start" x="911.5" y="-105.8" font-family="Times,serif" font-size="14.00">id :INTEGER</text>
<text text-anchor="start" x="911.5" y="-90.8" font-family="Times,serif" font-size="14.00">branch_id :integer</text>
<text text-anchor="start" x="911.5" y="-75.8" font-family="Times,serif" font-size="14.00">customer_id :integer</text>
<text text-anchor="start" x="911.5" y="-60.8" font-family="Times,serif" font-size="14.00">cost :decimal</text>
<text text-anchor="start" x="911.5" y="-45.8" font-family="Times,serif" font-size="14.00">status :varchar</text>
<text text-anchor="start" x="911.5" y="-30.8" font-family="Times,serif" font-size="14.00">created_at :datetime</text>
<text text-anchor="start" x="911.5" y="-15.8" font-family="Times,serif" font-size="14.00">updated_at :datetime</text>
</g>
<!-- OrderItem -->
<g id="node7" class="node"><title>OrderItem</title>
<path fill="none" stroke="black" d="M1064.5,-23C1064.5,-23 1171.5,-23 1171.5,-23 1177.5,-23 1183.5,-29 1183.5,-35 1183.5,-35 1183.5,-117 1183.5,-117 1183.5,-123 1177.5,-129 1171.5,-129 1171.5,-129 1064.5,-129 1064.5,-129 1058.5,-129 1052.5,-123 1052.5,-117 1052.5,-117 1052.5,-35 1052.5,-35 1052.5,-29 1058.5,-23 1064.5,-23"/>
<text text-anchor="middle" x="1118" y="-113.8" font-family="Times,serif" font-size="14.00">OrderItem</text>
<polyline fill="none" stroke="black" points="1052.5,-106 1183.5,-106 "/>
<text text-anchor="start" x="1060.5" y="-90.8" font-family="Times,serif" font-size="14.00">id :INTEGER</text>
<text text-anchor="start" x="1060.5" y="-75.8" font-family="Times,serif" font-size="14.00">product_id :integer</text>
<text text-anchor="start" x="1060.5" y="-60.8" font-family="Times,serif" font-size="14.00">quantity :integer</text>
<text text-anchor="start" x="1060.5" y="-45.8" font-family="Times,serif" font-size="14.00">created_at :datetime</text>
<text text-anchor="start" x="1060.5" y="-30.8" font-family="Times,serif" font-size="14.00">updated_at :datetime</text>
</g>
<!-- Branch -->
<g id="node8" class="node"><title>Branch</title>
<path fill="none" stroke="black" d="M1213.5,-30.5C1213.5,-30.5 1320.5,-30.5 1320.5,-30.5 1326.5,-30.5 1332.5,-36.5 1332.5,-42.5 1332.5,-42.5 1332.5,-109.5 1332.5,-109.5 1332.5,-115.5 1326.5,-121.5 1320.5,-121.5 1320.5,-121.5 1213.5,-121.5 1213.5,-121.5 1207.5,-121.5 1201.5,-115.5 1201.5,-109.5 1201.5,-109.5 1201.5,-42.5 1201.5,-42.5 1201.5,-36.5 1207.5,-30.5 1213.5,-30.5"/>
<text text-anchor="middle" x="1267" y="-106.3" font-family="Times,serif" font-size="14.00">Branch</text>
<polyline fill="none" stroke="black" points="1201.5,-98.5 1332.5,-98.5 "/>
<text text-anchor="start" x="1209.5" y="-83.3" font-family="Times,serif" font-size="14.00">id :INTEGER</text>
<text text-anchor="start" x="1209.5" y="-68.3" font-family="Times,serif" font-size="14.00">address :varchar</text>
<text text-anchor="start" x="1209.5" y="-53.3" font-family="Times,serif" font-size="14.00">created_at :datetime</text>
<text text-anchor="start" x="1209.5" y="-38.3" font-family="Times,serif" font-size="14.00">updated_at :datetime</text>
</g>
<!-- FinancialEvent -->
<g id="node9" class="node"><title>FinancialEvent</title>
<path fill="none" stroke="black" d="M1362.5,-8C1362.5,-8 1469.5,-8 1469.5,-8 1475.5,-8 1481.5,-14 1481.5,-20 1481.5,-20 1481.5,-132 1481.5,-132 1481.5,-138 1475.5,-144 1469.5,-144 1469.5,-144 1362.5,-144 1362.5,-144 1356.5,-144 1350.5,-138 1350.5,-132 1350.5,-132 1350.5,-20 1350.5,-20 1350.5,-14 1356.5,-8 1362.5,-8"/>
<text text-anchor="middle" x="1416" y="-128.8" font-family="Times,serif" font-size="14.00">FinancialEvent</text>
<polyline fill="none" stroke="black" points="1350.5,-121 1481.5,-121 "/>
<text text-anchor="start" x="1358.5" y="-105.8" font-family="Times,serif" font-size="14.00">id :INTEGER</text>
<text text-anchor="start" x="1358.5" y="-90.8" font-family="Times,serif" font-size="14.00">branch_id :integer</text>
<text text-anchor="start" x="1358.5" y="-75.8" font-family="Times,serif" font-size="14.00">customer_id :integer</text>
<text text-anchor="start" x="1358.5" y="-60.8" font-family="Times,serif" font-size="14.00">type :varchar</text>
<text text-anchor="start" x="1358.5" y="-45.8" font-family="Times,serif" font-size="14.00">amount :decimal</text>
<text text-anchor="start" x="1358.5" y="-30.8" font-family="Times,serif" font-size="14.00">created_at :datetime</text>
<text text-anchor="start" x="1358.5" y="-15.8" font-family="Times,serif" font-size="14.00">updated_at :datetime</text>
</g>
</g>
</svg>
