<?xml version="1.0" encoding="UTF-8" standalone="no"?>
<!DOCTYPE svg PUBLIC "-//W3C//DTD SVG 1.1//EN"
 "http://www.w3.org/Graphics/SVG/1.1/DTD/svg11.dtd">
<!-- Generated by graphviz version 2.38.0 (20140413.2041)
 -->
<!-- Title: models_diagram Pages: 1 -->
<svg width="413pt" height="620pt"
 viewBox="0.00 0.00 413.00 619.50" xmlns="http://www.w3.org/2000/svg" xmlns:xlink="http://www.w3.org/1999/xlink">
<g id="graph0" class="graph" transform="scale(1 1) rotate(0) translate(4 615.5)">
<title>models_diagram</title>
<polygon fill="white" stroke="none" points="-4,4 -4,-615.5 409,-615.5 409,4 -4,4"/>
<!-- branches -->
<g id="node1" class="node"><title>branches</title>
<polygon fill="lightblue" stroke="none" points="299.5,-542.5 299.5,-565.5 379.5,-565.5 379.5,-542.5 299.5,-542.5"/>
<polygon fill="none" stroke="black" points="299.5,-542.5 299.5,-565.5 379.5,-565.5 379.5,-542.5 299.5,-542.5"/>
<text text-anchor="start" x="307.5" y="-550.9" font-family="Verdana" font-size="12.00"> Branches </text>
<polygon fill="none" stroke="black" points="299.5,-519.5 299.5,-542.5 379.5,-542.5 379.5,-519.5 299.5,-519.5"/>
<text text-anchor="start" x="304.5" y="-527.9" font-family="Verdana" font-size="12.00">id </text>
<polygon fill="none" stroke="black" points="299.5,-496.5 299.5,-519.5 379.5,-519.5 379.5,-496.5 299.5,-496.5"/>
<text text-anchor="start" x="304.5" y="-504.9" font-family="Verdana" font-size="12.00">address </text>
<polygon fill="none" stroke="black" points="299.5,-473.5 299.5,-496.5 379.5,-496.5 379.5,-473.5 299.5,-473.5"/>
<text text-anchor="start" x="304.5" y="-481.9" font-family="Verdana" font-size="12.00">created_at </text>
<polygon fill="none" stroke="black" points="299.5,-450.5 299.5,-473.5 379.5,-473.5 379.5,-450.5 299.5,-450.5"/>
<text text-anchor="start" x="304.5" y="-458.9" font-family="Verdana" font-size="12.00">updated_at </text>
</g>
<!-- customers -->
<g id="node2" class="node"><title>customers</title>
<polygon fill="lightblue" stroke="none" points="281.5,-363.5 281.5,-386.5 397.5,-386.5 397.5,-363.5 281.5,-363.5"/>
<polygon fill="none" stroke="black" points="281.5,-363.5 281.5,-386.5 397.5,-386.5 397.5,-363.5 281.5,-363.5"/>
<text text-anchor="start" x="303" y="-371.9" font-family="Verdana" font-size="12.00"> Customers </text>
<polygon fill="none" stroke="black" points="281.5,-340.5 281.5,-363.5 397.5,-363.5 397.5,-340.5 281.5,-340.5"/>
<text text-anchor="start" x="286.5" y="-348.9" font-family="Verdana" font-size="12.00">id </text>
<polygon fill="none" stroke="black" points="281.5,-317.5 281.5,-340.5 397.5,-340.5 397.5,-317.5 281.5,-317.5"/>
<text text-anchor="start" x="286.5" y="-325.9" font-family="Verdana" font-size="12.00">name </text>
<polygon fill="none" stroke="black" points="281.5,-294.5 281.5,-317.5 397.5,-317.5 397.5,-294.5 281.5,-294.5"/>
<text text-anchor="start" x="286.5" y="-302.9" font-family="Verdana" font-size="12.00">billing_address </text>
<polygon fill="none" stroke="black" points="281.5,-271.5 281.5,-294.5 397.5,-294.5 397.5,-271.5 281.5,-271.5"/>
<text text-anchor="start" x="286.5" y="-279.9" font-family="Verdana" font-size="12.00">shipping_address </text>
<polygon fill="none" stroke="black" points="281.5,-248.5 281.5,-271.5 397.5,-271.5 397.5,-248.5 281.5,-248.5"/>
<text text-anchor="start" x="286.5" y="-256.9" font-family="Verdana" font-size="12.00">created_at </text>
<polygon fill="none" stroke="black" points="281.5,-225.5 281.5,-248.5 397.5,-248.5 397.5,-225.5 281.5,-225.5"/>
<text text-anchor="start" x="286.5" y="-233.9" font-family="Verdana" font-size="12.00">updated_at </text>
</g>
<!-- financial_events -->
<g id="node3" class="node"><title>financial_events</title>
<polygon fill="lightblue" stroke="none" points="126.5,-386.5 126.5,-409.5 236.5,-409.5 236.5,-386.5 126.5,-386.5"/>
<polygon fill="none" stroke="black" points="126.5,-386.5 126.5,-409.5 236.5,-409.5 236.5,-386.5 126.5,-386.5"/>
<text text-anchor="start" x="131.5" y="-394.9" font-family="Verdana" font-size="12.00"> Financial Events </text>
<polygon fill="none" stroke="black" points="126.5,-363.5 126.5,-386.5 236.5,-386.5 236.5,-363.5 126.5,-363.5"/>
<text text-anchor="start" x="131.5" y="-371.9" font-family="Verdana" font-size="12.00">id </text>
<polygon fill="none" stroke="black" points="126.5,-340.5 126.5,-363.5 236.5,-363.5 236.5,-340.5 126.5,-340.5"/>
<text text-anchor="start" x="131.5" y="-348.9" font-family="Verdana" font-size="12.00">branch_id </text>
<polygon fill="none" stroke="black" points="126.5,-317.5 126.5,-340.5 236.5,-340.5 236.5,-317.5 126.5,-317.5"/>
<text text-anchor="start" x="131.5" y="-325.9" font-family="Verdana" font-size="12.00">customer_id </text>
<polygon fill="none" stroke="black" points="126.5,-294.5 126.5,-317.5 236.5,-317.5 236.5,-294.5 126.5,-294.5"/>
<text text-anchor="start" x="131.5" y="-302.9" font-family="Verdana" font-size="12.00">type </text>
<polygon fill="none" stroke="black" points="126.5,-271.5 126.5,-294.5 236.5,-294.5 236.5,-271.5 126.5,-271.5"/>
<text text-anchor="start" x="131.5" y="-279.9" font-family="Verdana" font-size="12.00">amount </text>
<polygon fill="none" stroke="black" points="126.5,-248.5 126.5,-271.5 236.5,-271.5 236.5,-248.5 126.5,-248.5"/>
<text text-anchor="start" x="131.5" y="-256.9" font-family="Verdana" font-size="12.00">created_at </text>
<polygon fill="none" stroke="black" points="126.5,-225.5 126.5,-248.5 236.5,-248.5 236.5,-225.5 126.5,-225.5"/>
<text text-anchor="start" x="131.5" y="-233.9" font-family="Verdana" font-size="12.00">updated_at </text>
</g>
<!-- financial_events&#45;&gt;branches -->
<g id="edge5" class="edge"><title>financial_events:branch_id&#45;&gt;branches:id</title>
<path fill="none" stroke="black" stroke-dasharray="5,2" d="M237.5,-352.5C317.773,-352.5 223.688,-515.779 288.296,-530.449"/>
<polygon fill="black" stroke="black" points="288.194,-533.957 298.5,-531.5 288.911,-526.994 288.194,-533.957"/>
</g>
<!-- financial_events&#45;&gt;customers -->
<g id="edge6" class="edge"><title>financial_events:customer_id&#45;&gt;customers:id</title>
<path fill="none" stroke="black" stroke-dasharray="5,2" d="M237.5,-329.5C255.109,-329.5 258.183,-344.684 270.341,-350.377"/>
<polygon fill="black" stroke="black" points="269.996,-353.881 280.5,-352.5 271.427,-347.029 269.996,-353.881"/>
</g>
<!-- order_items -->
<g id="node4" class="node"><title>order_items</title>
<polygon fill="lightblue" stroke="none" points="0.5,-420.5 0.5,-443.5 89.5,-443.5 89.5,-420.5 0.5,-420.5"/>
<polygon fill="none" stroke="black" points="0.5,-420.5 0.5,-443.5 89.5,-443.5 89.5,-420.5 0.5,-420.5"/>
<text text-anchor="start" x="5.5" y="-428.9" font-family="Verdana" font-size="12.00"> Order Items </text>
<polygon fill="none" stroke="black" points="0.5,-397.5 0.5,-420.5 89.5,-420.5 89.5,-397.5 0.5,-397.5"/>
<text text-anchor="start" x="5.5" y="-405.9" font-family="Verdana" font-size="12.00">id </text>
<polygon fill="none" stroke="black" points="0.5,-374.5 0.5,-397.5 89.5,-397.5 89.5,-374.5 0.5,-374.5"/>
<text text-anchor="start" x="5.5" y="-382.9" font-family="Verdana" font-size="12.00">order_id </text>
<polygon fill="none" stroke="black" points="0.5,-351.5 0.5,-374.5 89.5,-374.5 89.5,-351.5 0.5,-351.5"/>
<text text-anchor="start" x="5.5" y="-359.9" font-family="Verdana" font-size="12.00">product_id </text>
<polygon fill="none" stroke="black" points="0.5,-328.5 0.5,-351.5 89.5,-351.5 89.5,-328.5 0.5,-328.5"/>
<text text-anchor="start" x="5.5" y="-336.9" font-family="Verdana" font-size="12.00">quantity </text>
<polygon fill="none" stroke="black" points="0.5,-305.5 0.5,-328.5 89.5,-328.5 89.5,-305.5 0.5,-305.5"/>
<text text-anchor="start" x="5.5" y="-313.9" font-family="Verdana" font-size="12.00">created_at </text>
<polygon fill="none" stroke="black" points="0.5,-282.5 0.5,-305.5 89.5,-305.5 89.5,-282.5 0.5,-282.5"/>
<text text-anchor="start" x="5.5" y="-290.9" font-family="Verdana" font-size="12.00">updated_at </text>
</g>
<!-- orders -->
<g id="node5" class="node"><title>orders</title>
<polygon fill="lightblue" stroke="none" points="138.5,-588.5 138.5,-611.5 224.5,-611.5 224.5,-588.5 138.5,-588.5"/>
<polygon fill="none" stroke="black" points="138.5,-588.5 138.5,-611.5 224.5,-611.5 224.5,-588.5 138.5,-588.5"/>
<text text-anchor="start" x="157" y="-596.9" font-family="Verdana" font-size="12.00"> Orders </text>
<polygon fill="none" stroke="black" points="138.5,-565.5 138.5,-588.5 224.5,-588.5 224.5,-565.5 138.5,-565.5"/>
<text text-anchor="start" x="143.5" y="-573.9" font-family="Verdana" font-size="12.00">id </text>
<polygon fill="none" stroke="black" points="138.5,-542.5 138.5,-565.5 224.5,-565.5 224.5,-542.5 138.5,-542.5"/>
<text text-anchor="start" x="143.5" y="-550.9" font-family="Verdana" font-size="12.00">branch_id </text>
<polygon fill="none" stroke="black" points="138.5,-519.5 138.5,-542.5 224.5,-542.5 224.5,-519.5 138.5,-519.5"/>
<text text-anchor="start" x="143.5" y="-527.9" font-family="Verdana" font-size="12.00">customer_id </text>
<polygon fill="none" stroke="black" points="138.5,-496.5 138.5,-519.5 224.5,-519.5 224.5,-496.5 138.5,-496.5"/>
<text text-anchor="start" x="143.5" y="-504.9" font-family="Verdana" font-size="12.00">cost </text>
<polygon fill="none" stroke="black" points="138.5,-473.5 138.5,-496.5 224.5,-496.5 224.5,-473.5 138.5,-473.5"/>
<text text-anchor="start" x="143.5" y="-481.9" font-family="Verdana" font-size="12.00">status </text>
<polygon fill="none" stroke="black" points="138.5,-450.5 138.5,-473.5 224.5,-473.5 224.5,-450.5 138.5,-450.5"/>
<text text-anchor="start" x="143.5" y="-458.9" font-family="Verdana" font-size="12.00">created_at </text>
<polygon fill="none" stroke="black" points="138.5,-427.5 138.5,-450.5 224.5,-450.5 224.5,-427.5 138.5,-427.5"/>
<text text-anchor="start" x="143.5" y="-435.9" font-family="Verdana" font-size="12.00">updated_at </text>
</g>
<!-- order_items&#45;&gt;orders -->
<g id="edge2" class="edge"><title>order_items:order_id&#45;&gt;orders:id</title>
<path fill="none" stroke="black" stroke-dasharray="5,2" d="M89,-386.5C172.82,-386.5 60.4069,-561.439 127.363,-576.472"/>
<polygon fill="black" stroke="black" points="127.198,-579.974 137.5,-577.5 127.904,-573.009 127.198,-579.974"/>
</g>
<!-- products -->
<g id="node7" class="node"><title>products</title>
<polygon fill="lightblue" stroke="none" points="125.5,-183.5 125.5,-206.5 238.5,-206.5 238.5,-183.5 125.5,-183.5"/>
<polygon fill="none" stroke="black" points="125.5,-183.5 125.5,-206.5 238.5,-206.5 238.5,-183.5 125.5,-183.5"/>
<text text-anchor="start" x="151.5" y="-191.9" font-family="Verdana" font-size="12.00"> Products </text>
<polygon fill="none" stroke="black" points="125.5,-160.5 125.5,-183.5 238.5,-183.5 238.5,-160.5 125.5,-160.5"/>
<text text-anchor="start" x="130.5" y="-168.9" font-family="Verdana" font-size="12.00">id </text>
<polygon fill="none" stroke="black" points="125.5,-137.5 125.5,-160.5 238.5,-160.5 238.5,-137.5 125.5,-137.5"/>
<text text-anchor="start" x="130.5" y="-145.9" font-family="Verdana" font-size="12.00">name </text>
<polygon fill="none" stroke="black" points="125.5,-114.5 125.5,-137.5 238.5,-137.5 238.5,-114.5 125.5,-114.5"/>
<text text-anchor="start" x="130.5" y="-122.9" font-family="Verdana" font-size="12.00">category_id </text>
<polygon fill="none" stroke="black" points="125.5,-91.5 125.5,-114.5 238.5,-114.5 238.5,-91.5 125.5,-91.5"/>
<text text-anchor="start" x="130.5" y="-99.9" font-family="Verdana" font-size="12.00">price </text>
<polygon fill="none" stroke="black" points="125.5,-68.5 125.5,-91.5 238.5,-91.5 238.5,-68.5 125.5,-68.5"/>
<text text-anchor="start" x="130.5" y="-76.9" font-family="Verdana" font-size="12.00">description </text>
<polygon fill="none" stroke="black" points="125.5,-45.5 125.5,-68.5 238.5,-68.5 238.5,-45.5 125.5,-45.5"/>
<text text-anchor="start" x="130.5" y="-53.9" font-family="Verdana" font-size="12.00">preparation_time </text>
<polygon fill="none" stroke="black" points="125.5,-22.5 125.5,-45.5 238.5,-45.5 238.5,-22.5 125.5,-22.5"/>
<text text-anchor="start" x="130.5" y="-30.9" font-family="Verdana" font-size="12.00">created_at </text>
<polygon fill="none" stroke="black" points="125.5,0.5 125.5,-22.5 238.5,-22.5 238.5,0.5 125.5,0.5"/>
<text text-anchor="start" x="130.5" y="-7.9" font-family="Verdana" font-size="12.00">updated_at </text>
</g>
<!-- order_items&#45;&gt;products -->
<g id="edge3" class="edge"><title>order_items:product_id&#45;&gt;products:id</title>
<path fill="none" stroke="black" stroke-dasharray="5,2" d="M89,-362.5C171.086,-362.5 50.8147,-189.187 114.72,-173.616"/>
<polygon fill="black" stroke="black" points="115.436,-177.059 125,-172.5 114.681,-170.1 115.436,-177.059"/>
</g>
<!-- orders&#45;&gt;branches -->
<g id="edge4" class="edge"><title>orders:branch_id&#45;&gt;branches:id</title>
<path fill="none" stroke="black" stroke-dasharray="5,2" d="M225.5,-554.5C255.796,-554.5 263.049,-536.256 288.305,-532.265"/>
<polygon fill="black" stroke="black" points="288.79,-535.739 298.5,-531.5 288.266,-528.758 288.79,-535.739"/>
</g>
<!-- orders&#45;&gt;customers -->
<g id="edge7" class="edge"><title>orders:customer_id&#45;&gt;customers:id</title>
<path fill="none" stroke="black" stroke-dasharray="5,2" d="M225.5,-531.5C304.988,-531.5 206.894,-368.221 270.427,-353.551"/>
<polygon fill="black" stroke="black" points="270.917,-357.019 280.5,-352.5 270.191,-350.057 270.917,-357.019"/>
</g>
<!-- product_categories -->
<g id="node6" class="node"><title>product_categories</title>
<polygon fill="lightblue" stroke="none" points="274.5,-137.5 274.5,-160.5 405.5,-160.5 405.5,-137.5 274.5,-137.5"/>
<polygon fill="none" stroke="black" points="274.5,-137.5 274.5,-160.5 405.5,-160.5 405.5,-137.5 274.5,-137.5"/>
<text text-anchor="start" x="279.5" y="-145.9" font-family="Verdana" font-size="12.00"> Product Categories </text>
<polygon fill="none" stroke="black" points="274.5,-114.5 274.5,-137.5 405.5,-137.5 405.5,-114.5 274.5,-114.5"/>
<text text-anchor="start" x="279.5" y="-122.9" font-family="Verdana" font-size="12.00">id </text>
<polygon fill="none" stroke="black" points="274.5,-91.5 274.5,-114.5 405.5,-114.5 405.5,-91.5 274.5,-91.5"/>
<text text-anchor="start" x="279.5" y="-99.9" font-family="Verdana" font-size="12.00">name </text>
<polygon fill="none" stroke="black" points="274.5,-68.5 274.5,-91.5 405.5,-91.5 405.5,-68.5 274.5,-68.5"/>
<text text-anchor="start" x="279.5" y="-76.9" font-family="Verdana" font-size="12.00">description </text>
<polygon fill="none" stroke="black" points="274.5,-45.5 274.5,-68.5 405.5,-68.5 405.5,-45.5 274.5,-45.5"/>
<text text-anchor="start" x="279.5" y="-53.9" font-family="Verdana" font-size="12.00">created_at </text>
<polygon fill="none" stroke="black" points="274.5,-22.5 274.5,-45.5 405.5,-45.5 405.5,-22.5 274.5,-22.5"/>
<text text-anchor="start" x="279.5" y="-30.9" font-family="Verdana" font-size="12.00">updated_at </text>
</g>
<!-- products&#45;&gt;product_categories -->
<g id="edge1" class="edge"><title>products:category_id&#45;&gt;product_categories:id</title>
<path fill="none" stroke="black" stroke-dasharray="5,2" d="M238,-126.5C250,-126.5 255.25,-126.5 263.875,-126.5"/>
<polygon fill="black" stroke="black" points="264,-130 274,-126.5 264,-123 264,-130"/>
</g>
</g>
</svg>
